<svg width="2486" height="346" viewBox="0 0 2486 346" fill="none" xmlns="http://www.w3.org/2000/svg">
<rect x="1878" y="8" width="608" height="324" rx="10" fill="#181818"/>
<path d="M1965.38 271.112V248.072C1965.38 243.805 1967.43 241.672 1971.53 241.672H1993.54C1997.81 241.672 1999.94 243.805 1999.94 248.072V271.112C1999.94 275.037 1997.81 277 1993.54 277H1971.53C1969.65 277 1968.11 276.488 1966.92 275.464C1965.9 274.269 1965.38 272.819 1965.38 271.112ZM2021.88 171.272V141.064H2131.71V171.272L2073.34 246.536H2131.71V276.744H2025.72V246.792L2086.65 171.272H2021.88ZM2145.18 188.168V176.392C2145.18 151.987 2156.96 139.784 2180.51 139.784C2220.96 139.784 2245.19 142.088 2253.21 146.696V169.224H2191.52C2189.3 169.224 2187.42 169.395 2185.88 169.736C2184.52 170.077 2183.49 170.675 2182.81 171.528C2182.13 172.381 2181.62 173.32 2181.28 174.344C2181.11 175.368 2181.02 176.819 2181.02 178.696V184.84C2181.02 188.765 2181.87 191.24 2183.58 192.264C2185.29 193.117 2187.93 193.544 2191.52 193.544H2223.77C2230.09 193.544 2235.55 194.483 2240.16 196.36C2244.93 198.067 2248.69 200.541 2251.42 203.784C2254.32 207.027 2256.45 210.781 2257.82 215.048C2259.19 219.144 2259.87 223.667 2259.87 228.616V242.696C2259.87 263.176 2251.25 274.867 2234.01 277.768C2231.62 278.109 2229.15 278.28 2226.59 278.28C2183.58 278.28 2158.32 275.805 2150.81 270.856V248.584H2215.07C2221.04 248.584 2224.03 245.683 2224.03 239.88V233.48C2224.03 231.432 2223.77 229.811 2223.26 228.616C2222.92 227.421 2222.07 226.483 2220.7 225.8C2219.33 225.117 2217.46 224.776 2215.07 224.776H2183.32C2170.87 224.776 2161.39 221.875 2154.91 216.072C2148.42 210.269 2145.18 200.968 2145.18 188.168ZM2279.02 277V76.552H2314.6V155.656C2317.16 153.779 2318.79 152.584 2319.47 152.072C2320.32 151.56 2321.94 150.451 2324.33 148.744C2326.89 147.037 2328.77 145.928 2329.96 145.416C2331.16 144.904 2333.04 144.136 2335.6 143.112C2338.16 141.917 2340.37 141.149 2342.25 140.808C2344.3 140.296 2346.69 139.869 2349.42 139.528C2352.15 139.016 2354.97 138.76 2357.87 138.76C2385 138.76 2398.57 154.632 2398.57 186.376V277H2362.73V185.864C2362.73 179.379 2361.37 174.685 2358.64 171.784C2356.08 168.883 2352.41 167.432 2347.63 167.432C2342.85 167.432 2338.58 167.944 2334.83 168.968C2331.24 169.821 2327.92 171.101 2324.84 172.808C2321.94 174.344 2318.61 176.477 2314.86 179.208V277H2279.02Z" fill="white"/>
<path d="M1157.36 344.12V139.064H1170.93L1175.79 154.168C1180.06 151.096 1187.57 147.597 1198.32 143.672C1209.07 139.576 1218.37 137.528 1226.22 137.528C1235.1 137.528 1242.61 139.576 1248.75 143.672C1254.9 147.768 1259.5 153.4 1262.58 160.568C1265.65 167.565 1267.78 174.819 1268.98 182.328C1270.34 189.667 1271.02 197.688 1271.02 206.392C1271.02 216.291 1270.43 224.995 1269.23 232.504C1268.21 239.843 1266.16 247.181 1263.09 254.52C1260.19 261.688 1255.58 267.235 1249.26 271.16C1243.12 275.085 1235.44 277.048 1226.22 277.048C1219.91 277.048 1211.8 276.109 1201.9 274.232C1192.18 272.355 1183.47 269.88 1175.79 266.808V344.12H1157.36ZM1175.79 251.448C1192.86 255.885 1209.67 258.104 1226.22 258.104C1235.1 258.104 1241.58 254.435 1245.68 247.096C1249.95 239.757 1252.08 226.189 1252.08 206.392C1252.08 173.112 1243.46 156.472 1226.22 156.472C1211.89 156.472 1195.08 160.397 1175.79 168.248V251.448ZM1299.11 226.616V74.552H1318.05V226.616C1318.05 237.027 1319.25 244.28 1321.64 248.376C1324.03 252.301 1327.7 254.861 1332.65 256.056C1346.64 259.64 1354.24 261.432 1355.43 261.432V275H1332.9C1310.37 275 1299.11 258.872 1299.11 226.616ZM1373.3 233.784V139.064H1392.24V233.784C1392.24 241.805 1394.38 247.949 1398.64 252.216C1402.91 256.312 1408.46 258.36 1415.28 258.36C1421.77 258.36 1427.91 257.677 1433.72 256.312C1439.52 254.947 1444.13 253.581 1447.54 252.216C1451.12 250.68 1457.1 247.864 1465.46 243.768V139.064H1484.4V275H1471.09L1465.46 259.128C1464.95 259.299 1463.07 260.408 1459.83 262.456C1456.59 264.333 1454.54 265.443 1453.68 265.784C1453 266.125 1451.21 267.149 1448.31 268.856C1445.41 270.392 1443.36 271.331 1442.16 271.672C1440.97 272.013 1439.01 272.696 1436.28 273.72C1433.55 274.744 1431.24 275.427 1429.36 275.768C1427.66 276.109 1425.52 276.451 1422.96 276.792C1420.4 277.133 1417.84 277.304 1415.28 277.304C1402.31 277.304 1392.07 273.037 1384.56 264.504C1377.05 255.971 1373.3 245.731 1373.3 233.784ZM1512.04 245.56C1512.04 240.781 1513.32 236.344 1515.88 232.248C1518.44 227.981 1522.19 225.336 1527.14 224.312C1517.24 217.997 1512.29 205.539 1512.29 186.936C1512.29 171.064 1516.13 159.032 1523.81 150.84C1531.66 142.648 1542.59 138.552 1556.58 138.552H1636.45V152.888L1615.72 157.496C1615.89 157.837 1616.49 158.947 1617.51 160.824C1618.53 162.531 1619.3 163.981 1619.81 165.176C1620.33 166.2 1620.92 167.821 1621.61 170.04C1622.29 172.088 1622.8 174.563 1623.14 177.464C1623.48 180.195 1623.65 183.352 1623.65 186.936C1623.65 191.715 1623.06 196.579 1621.86 201.528C1620.84 206.477 1618.96 211.853 1616.23 217.656C1613.5 223.288 1609.15 227.896 1603.17 231.48C1597.2 235.064 1589.95 236.856 1581.41 236.856H1541.48C1534.48 236.856 1530.98 239.416 1530.98 244.536C1530.98 250.339 1534.48 253.24 1541.48 253.24H1596.01C1606.42 253.24 1614.52 256.483 1620.33 262.968C1626.13 269.283 1629.03 277.816 1629.03 288.568V304.696C1629.03 309.304 1628.52 313.571 1627.49 317.496C1626.64 321.421 1624.93 325.517 1622.37 329.784C1619.98 334.221 1616.06 337.72 1610.6 340.28C1605.14 342.84 1598.48 344.12 1590.63 344.12H1552.23C1539.77 344.12 1529.79 340.792 1522.28 334.136C1514.94 327.48 1511.27 317.667 1511.27 304.696V282.936L1521.51 266.296C1515.2 261.859 1512.04 254.947 1512.04 245.56ZM1530.21 304.696C1530.21 318.349 1537.55 325.176 1552.23 325.176H1590.63C1603.6 325.176 1610.09 318.349 1610.09 304.696V289.848C1610.09 283.363 1608.89 278.755 1606.5 276.024C1604.28 273.464 1599.68 272.184 1592.68 272.184H1541.73C1539.34 272.184 1537.21 272.013 1535.33 271.672C1533.46 271.331 1532.18 270.989 1531.49 270.648L1530.21 270.136V304.696ZM1531.24 186.936C1531.24 190.52 1531.58 193.933 1532.26 197.176C1532.94 200.419 1534.05 203.747 1535.59 207.16C1537.13 210.403 1539.52 213.048 1542.76 215.096C1546.17 216.973 1550.18 217.912 1554.79 217.912H1579.88C1584.49 217.912 1588.5 216.973 1591.91 215.096C1595.32 213.219 1597.88 210.744 1599.59 207.672C1601.47 204.6 1602.75 201.528 1603.43 198.456C1604.28 195.213 1604.71 191.971 1604.71 188.728C1604.71 188.045 1604.71 187.448 1604.71 186.936C1604.2 177.037 1602.24 169.699 1598.82 164.92C1595.41 159.971 1589.01 157.496 1579.62 157.496H1556.58C1539.69 157.496 1531.24 167.309 1531.24 186.936ZM1654.3 117.048V103.224C1654.3 98.9573 1656.35 96.824 1660.44 96.824H1673.24C1677.17 96.824 1679.13 98.9573 1679.13 103.224V117.048C1679.13 120.973 1677.17 122.936 1673.24 122.936H1660.44C1656.35 122.936 1654.3 120.973 1654.3 117.048ZM1656.86 275V139.064H1675.8V275H1656.86ZM1707.36 275V139.064H1720.67L1726.3 154.936C1726.82 154.765 1728.69 153.741 1731.94 151.864C1735.18 149.816 1737.14 148.621 1737.82 148.28C1738.68 147.939 1740.55 147 1743.46 145.464C1746.36 143.757 1748.41 142.733 1749.6 142.392C1750.79 142.051 1752.76 141.368 1755.49 140.344C1758.22 139.32 1760.44 138.637 1762.14 138.296C1764.02 137.955 1766.24 137.613 1768.8 137.272C1771.36 136.931 1773.92 136.76 1776.48 136.76C1789.45 136.76 1799.69 141.027 1807.2 149.56C1814.71 158.093 1818.46 168.333 1818.46 180.28V275H1799.52V180.28C1799.52 172.259 1797.39 166.2 1793.12 162.104C1788.85 157.837 1783.31 155.704 1776.48 155.704C1769.99 155.704 1763.85 156.387 1758.05 157.752C1752.25 159.117 1747.55 160.568 1743.97 162.104C1740.55 163.469 1734.67 166.2 1726.3 170.296V275H1707.36Z" fill="#181818"/>
<rect y="8" width="1105" height="324" rx="10" fill="#181818"/>
<path d="M56.68 241.44V228.64C56.68 223.349 57.3627 218.571 58.728 214.304C60.264 210.037 62.568 206.112 65.64 202.528C68.712 198.944 72.808 196.213 77.928 194.336C83.2187 192.288 89.448 191.264 96.616 191.264C103.272 191.264 109.843 191.349 116.328 191.52C122.984 191.52 129.725 191.435 136.552 191.264C136.723 185.632 136.723 182.731 136.552 182.56C136.552 178.976 136.125 176.075 135.272 173.856C134.589 171.637 133.395 169.931 131.688 168.736C129.981 167.541 128.104 166.773 126.056 166.432C124.008 166.091 121.448 165.92 118.376 165.92C107.283 165.92 88.2533 166.859 61.288 168.736V146.72C76.4773 140.747 97.128 137.675 123.24 137.504C138.941 137.504 151.059 140.832 159.592 147.488C168.125 153.973 172.392 165.237 172.392 181.28V276H143.976L136.552 261.152C135.869 262.347 133.651 264.224 129.896 266.784C126.312 269.173 121.192 271.648 114.536 274.208C107.88 276.597 101.395 277.707 95.08 277.536C82.792 277.195 73.32 273.525 66.664 266.528C60.008 259.36 56.68 250.997 56.68 241.44ZM92.52 236.32C92.52 241.44 93.6293 244.853 95.848 246.56C98.0667 248.096 101.224 248.864 105.32 248.864C107.368 248.864 109.501 248.693 111.72 248.352C113.939 247.84 115.987 247.328 117.864 246.816C119.912 246.133 121.875 245.451 123.752 244.768C125.629 243.915 127.336 243.147 128.872 242.464C130.408 241.611 131.688 240.928 132.712 240.416C133.907 239.733 134.845 239.221 135.528 238.88C136.211 238.368 136.552 238.112 136.552 238.112V213.28L103.528 215.84C101.309 216.011 99.432 216.608 97.896 217.632C96.36 218.485 95.1653 219.595 94.312 220.96C93.6293 222.325 93.1173 223.691 92.776 225.056C92.6053 226.421 92.52 227.957 92.52 229.664V236.32ZM191.222 208.672C191.222 199.285 191.563 191.264 192.246 184.608C192.929 177.781 194.209 171.296 196.086 165.152C197.963 159.008 200.523 154.059 203.766 150.304C207.009 146.549 211.275 143.563 216.566 141.344C221.857 139.125 228.171 138.016 235.51 138.016C239.435 138.016 243.787 138.357 248.566 139.04C253.345 139.723 258.209 140.747 263.158 142.112C268.278 143.477 272.801 145.099 276.726 146.976V75.04H312.566V276H282.87L276.726 262.176C271.777 266.272 265.547 269.856 258.038 272.928C250.529 276 243.019 277.536 235.51 277.536C232.267 277.536 229.195 277.28 226.294 276.768C223.393 276.256 220.662 275.488 218.102 274.464C215.713 273.44 213.409 272.245 211.19 270.88C209.142 269.344 207.265 267.552 205.558 265.504C203.851 263.456 202.23 261.323 200.694 259.104C199.329 256.715 198.134 254.155 197.11 251.424C196.086 248.523 195.147 245.536 194.294 242.464C193.611 239.221 193.014 235.808 192.502 232.224C192.161 228.469 191.819 224.715 191.478 220.96C191.307 217.035 191.222 212.939 191.222 208.672ZM227.062 207.392C227.062 221.899 228.513 232.139 231.414 238.112C234.315 243.915 238.838 246.816 244.982 246.816C251.297 246.816 257.099 246.133 262.39 244.768C267.851 243.232 272.63 241.184 276.726 238.624V171.296C274.337 170.272 271.862 169.504 269.302 168.992C266.913 168.309 264.438 167.797 261.878 167.456C259.318 166.944 256.587 166.603 253.686 166.432C250.955 166.261 248.054 166.176 244.982 166.176C242.422 166.176 240.289 166.517 238.582 167.2C236.875 167.712 235.254 168.907 233.718 170.784C232.182 172.491 230.902 174.88 229.878 177.952C229.025 180.853 228.342 184.779 227.83 189.728C227.318 194.507 227.062 200.395 227.062 207.392ZM333.472 209.952C333.472 195.957 334.496 184.437 336.544 175.392C338.592 166.347 342.176 159.093 347.296 153.632C352.416 148.171 358.731 144.331 366.24 142.112C373.92 139.893 383.648 138.784 395.424 138.784C418.805 138.784 434.933 143.904 443.808 154.144C452.853 164.384 457.376 182.987 457.376 209.952C457.376 235.381 452.939 252.96 444.064 262.688C435.36 272.416 419.147 277.28 395.424 277.28C386.037 277.28 377.845 276.512 370.848 274.976C364.021 273.269 358.133 270.795 353.184 267.552C348.405 264.309 344.565 260.043 341.664 254.752C338.763 249.291 336.629 242.976 335.264 235.808C334.069 228.469 333.472 219.851 333.472 209.952ZM369.312 209.952C369.312 218.656 369.739 225.568 370.592 230.688C371.445 235.808 372.981 239.733 375.2 242.464C377.589 245.024 380.235 246.645 383.136 247.328C386.037 248.011 390.133 248.352 395.424 248.352C400.032 248.352 403.531 248.181 405.92 247.84C408.48 247.499 410.869 246.645 413.088 245.28C415.477 243.915 417.184 241.781 418.208 238.88C419.403 235.979 420.256 232.309 420.768 227.872C421.28 223.264 421.536 217.291 421.536 209.952C421.536 202.101 421.28 195.787 420.768 191.008C420.427 186.059 419.744 181.963 418.72 178.72C417.696 175.307 416.075 172.917 413.856 171.552C411.637 170.016 409.163 168.992 406.432 168.48C403.701 167.797 400.032 167.456 395.424 167.456C391.669 167.456 388.597 167.627 386.208 167.968C383.819 168.309 381.515 169.077 379.296 170.272C377.077 171.296 375.371 172.747 374.176 174.624C373.152 176.331 372.213 178.805 371.36 182.048C370.507 185.291 369.909 189.131 369.568 193.568C369.397 198.005 369.312 203.467 369.312 209.952ZM478.77 276V140.064H507.442L514.61 154.656C518.877 151.413 521.863 149.28 523.57 148.256C525.447 147.061 528.349 145.44 532.274 143.392C536.199 141.173 540.125 139.723 544.05 139.04C548.146 138.187 552.669 137.76 557.618 137.76C584.754 137.76 598.322 153.632 598.322 185.376V276H562.482V184.864C562.482 178.379 561.117 173.685 558.386 170.784C555.826 167.883 552.157 166.432 547.378 166.432C542.599 166.432 538.333 166.944 534.578 167.968C530.994 168.821 527.666 170.101 524.594 171.808C521.693 173.344 518.365 175.477 514.61 178.208V276H478.77ZM617.472 119.84V97.312C617.472 92.8747 619.52 90.656 623.616 90.656H650.496C654.251 90.656 656.128 92.8747 656.128 97.312V119.84C656.128 121.717 655.616 123.168 654.592 124.192C653.739 125.216 652.373 125.728 650.496 125.728H623.616C622.421 125.728 621.312 125.557 620.288 125.216C619.435 124.704 618.752 124.021 618.24 123.168C617.728 122.144 617.472 121.035 617.472 119.84ZM618.752 276V140.064H654.592V276H618.752ZM673.68 187.168V175.392C673.68 150.987 685.456 138.784 709.008 138.784C749.456 138.784 773.691 141.088 781.712 145.696V168.224H720.016C717.797 168.224 715.92 168.395 714.384 168.736C713.019 169.077 711.995 169.675 711.312 170.528C710.629 171.381 710.117 172.32 709.776 173.344C709.605 174.368 709.52 175.819 709.52 177.696V183.84C709.52 187.765 710.373 190.24 712.08 191.264C713.787 192.117 716.432 192.544 720.016 192.544H752.272C758.587 192.544 764.048 193.483 768.656 195.36C773.435 197.067 777.189 199.541 779.92 202.784C782.821 206.027 784.955 209.781 786.32 214.048C787.685 218.144 788.368 222.667 788.368 227.616V241.696C788.368 262.176 779.749 273.867 762.512 276.768C760.123 277.109 757.648 277.28 755.088 277.28C712.08 277.28 686.821 274.805 679.312 269.856V247.584H743.568C749.541 247.584 752.528 244.683 752.528 238.88V232.48C752.528 230.432 752.272 228.811 751.76 227.616C751.419 226.421 750.565 225.483 749.2 224.8C747.835 224.117 745.957 223.776 743.568 223.776H711.824C699.365 223.776 689.893 220.875 683.408 215.072C676.923 209.269 673.68 199.968 673.68 187.168ZM807.52 119.84V97.312C807.52 92.8747 809.568 90.656 813.664 90.656H840.544C842.421 90.656 843.872 91.3387 844.896 92.704C845.92 93.8987 846.432 95.4347 846.432 97.312V119.84C846.432 123.765 844.469 125.728 840.544 125.728H813.664C812.469 125.728 811.36 125.557 810.336 125.216C809.483 124.704 808.8 124.021 808.288 123.168C807.776 122.144 807.52 121.035 807.52 119.84ZM809.056 345.12V140.064H844.896V277.024C845.067 291.189 844.555 303.819 843.36 314.912C842.165 326.005 839.52 336.075 835.424 345.12H809.056ZM865.68 187.168V175.392C865.68 150.987 877.456 138.784 901.008 138.784C941.456 138.784 965.691 141.088 973.712 145.696V168.224H912.016C909.797 168.224 907.92 168.395 906.384 168.736C905.019 169.077 903.995 169.675 903.312 170.528C902.629 171.381 902.117 172.32 901.776 173.344C901.605 174.368 901.52 175.819 901.52 177.696V183.84C901.52 187.765 902.373 190.24 904.08 191.264C905.787 192.117 908.432 192.544 912.016 192.544H944.272C950.587 192.544 956.048 193.483 960.656 195.36C965.435 197.067 969.189 199.541 971.92 202.784C974.821 206.027 976.955 209.781 978.32 214.048C979.685 218.144 980.368 222.667 980.368 227.616V241.696C980.368 262.176 971.749 273.867 954.512 276.768C952.123 277.109 949.648 277.28 947.088 277.28C904.08 277.28 878.821 274.805 871.312 269.856V247.584H935.568C941.541 247.584 944.528 244.683 944.528 238.88V232.48C944.528 230.432 944.272 228.811 943.76 227.616C943.419 226.421 942.565 225.483 941.2 224.8C939.835 224.117 937.957 223.776 935.568 223.776H903.824C891.365 223.776 881.893 220.875 875.408 215.072C868.923 209.269 865.68 199.968 865.68 187.168ZM1004.38 270.112V247.072C1004.38 242.805 1006.43 240.672 1010.53 240.672H1032.54C1036.81 240.672 1038.94 242.805 1038.94 247.072V270.112C1038.94 274.037 1036.81 276 1032.54 276H1010.53C1008.65 276 1007.11 275.488 1005.92 274.464C1004.9 273.269 1004.38 271.819 1004.38 270.112Z" fill="white"/>
</svg>
